<mxfile host="app.diagrams.net" modified="2021-05-05T19:01:27.843Z" agent="5.0 (X11; Linux x86_64) AppleWebKit/537.36 (KHTML, like Gecko) Chrome/90.0.4430.93 Safari/537.36" etag="FkJr5TQeE_g9RvxuvzIn" version="14.6.1" type="github">
  <diagram id="CZID4iWCORJmg3-1BY5N" name="Page-1">
    <mxGraphModel dx="2249" dy="775" grid="1" gridSize="10" guides="1" tooltips="1" connect="1" arrows="1" fold="1" page="1" pageScale="1" pageWidth="827" pageHeight="1169" math="0" shadow="0">
      <root>
        <mxCell id="0" />
        <mxCell id="1" parent="0" />
        <mxCell id="6UCosM7E__kPXZcTLZPM-3" value="Users" style="ellipse;whiteSpace=wrap;html=1;fontSize=20;" vertex="1" parent="1">
          <mxGeometry x="90" y="80" width="120" height="80" as="geometry" />
        </mxCell>
        <mxCell id="6UCosM7E__kPXZcTLZPM-4" value="" style="whiteSpace=wrap;html=1;aspect=fixed;fontSize=20;" vertex="1" parent="1">
          <mxGeometry x="10" y="170" width="290" height="290" as="geometry" />
        </mxCell>
        <mxCell id="6UCosM7E__kPXZcTLZPM-6" value="id INT AUTOINCREMENT" style="text;html=1;strokeColor=none;fillColor=none;align=center;verticalAlign=middle;whiteSpace=wrap;rounded=0;fontSize=20;" vertex="1" parent="1">
          <mxGeometry x="30" y="180" width="250" height="20" as="geometry" />
        </mxCell>
        <mxCell id="6UCosM7E__kPXZcTLZPM-9" value="first_name VARCHAR" style="text;html=1;strokeColor=none;fillColor=none;align=center;verticalAlign=middle;whiteSpace=wrap;rounded=0;fontSize=20;" vertex="1" parent="1">
          <mxGeometry x="30" y="210" width="260" height="20" as="geometry" />
        </mxCell>
        <mxCell id="6UCosM7E__kPXZcTLZPM-10" value="last_name VARCHAR" style="text;html=1;strokeColor=none;fillColor=none;align=center;verticalAlign=middle;whiteSpace=wrap;rounded=0;fontSize=20;" vertex="1" parent="1">
          <mxGeometry x="30" y="240" width="260" height="20" as="geometry" />
        </mxCell>
        <mxCell id="6UCosM7E__kPXZcTLZPM-11" value="phone_number TEXT" style="text;html=1;strokeColor=none;fillColor=none;align=center;verticalAlign=middle;whiteSpace=wrap;rounded=0;fontSize=20;" vertex="1" parent="1">
          <mxGeometry x="30" y="270" width="250" height="20" as="geometry" />
        </mxCell>
        <mxCell id="6UCosM7E__kPXZcTLZPM-12" value="email VARCHAR" style="text;html=1;strokeColor=none;fillColor=none;align=center;verticalAlign=middle;whiteSpace=wrap;rounded=0;fontSize=20;" vertex="1" parent="1">
          <mxGeometry x="30" y="300" width="260" height="20" as="geometry" />
        </mxCell>
        <mxCell id="6UCosM7E__kPXZcTLZPM-13" value="password TEXT" style="text;html=1;strokeColor=none;fillColor=none;align=center;verticalAlign=middle;whiteSpace=wrap;rounded=0;fontSize=20;" vertex="1" parent="1">
          <mxGeometry x="30" y="330" width="260" height="20" as="geometry" />
        </mxCell>
        <mxCell id="6UCosM7E__kPXZcTLZPM-14" style="edgeStyle=orthogonalEdgeStyle;rounded=0;orthogonalLoop=1;jettySize=auto;html=1;exitX=0.5;exitY=1;exitDx=0;exitDy=0;fontSize=20;" edge="1" parent="1" source="6UCosM7E__kPXZcTLZPM-10" target="6UCosM7E__kPXZcTLZPM-10">
          <mxGeometry relative="1" as="geometry" />
        </mxCell>
        <mxCell id="6UCosM7E__kPXZcTLZPM-17" value="balance DECIMAL" style="text;html=1;strokeColor=none;fillColor=none;align=center;verticalAlign=middle;whiteSpace=wrap;rounded=0;fontSize=20;" vertex="1" parent="1">
          <mxGeometry x="30" y="360" width="260" height="20" as="geometry" />
        </mxCell>
        <mxCell id="6UCosM7E__kPXZcTLZPM-18" value="username VARCHAR" style="text;html=1;strokeColor=none;fillColor=none;align=center;verticalAlign=middle;whiteSpace=wrap;rounded=0;fontSize=20;" vertex="1" parent="1">
          <mxGeometry x="30" y="390" width="260" height="20" as="geometry" />
        </mxCell>
        <mxCell id="6UCosM7E__kPXZcTLZPM-21" value="hashed_password TEXT" style="text;html=1;strokeColor=none;fillColor=none;align=center;verticalAlign=middle;whiteSpace=wrap;rounded=0;fontSize=20;" vertex="1" parent="1">
          <mxGeometry x="30" y="420" width="260" height="20" as="geometry" />
        </mxCell>
        <mxCell id="6UCosM7E__kPXZcTLZPM-22" value="Products" style="ellipse;whiteSpace=wrap;html=1;fontSize=20;" vertex="1" parent="1">
          <mxGeometry x="400" y="80" width="120" height="80" as="geometry" />
        </mxCell>
        <mxCell id="6UCosM7E__kPXZcTLZPM-23" value="" style="whiteSpace=wrap;html=1;aspect=fixed;fontSize=20;" vertex="1" parent="1">
          <mxGeometry x="330" y="170" width="290" height="290" as="geometry" />
        </mxCell>
        <mxCell id="6UCosM7E__kPXZcTLZPM-24" value="id INT AUTOINCREMENT" style="text;html=1;strokeColor=none;fillColor=none;align=center;verticalAlign=middle;whiteSpace=wrap;rounded=0;fontSize=20;" vertex="1" parent="1">
          <mxGeometry x="340" y="180" width="250" height="20" as="geometry" />
        </mxCell>
        <mxCell id="6UCosM7E__kPXZcTLZPM-25" value="name VARCHAR" style="text;html=1;strokeColor=none;fillColor=none;align=center;verticalAlign=middle;whiteSpace=wrap;rounded=0;fontSize=20;" vertex="1" parent="1">
          <mxGeometry x="335" y="210" width="260" height="20" as="geometry" />
        </mxCell>
        <mxCell id="6UCosM7E__kPXZcTLZPM-26" value="unit_price DECIMAL" style="text;html=1;strokeColor=none;fillColor=none;align=center;verticalAlign=middle;whiteSpace=wrap;rounded=0;fontSize=20;" vertex="1" parent="1">
          <mxGeometry x="340" y="240" width="250" height="20" as="geometry" />
        </mxCell>
        <mxCell id="6UCosM7E__kPXZcTLZPM-27" value="size ENUM" style="text;html=1;strokeColor=none;fillColor=none;align=center;verticalAlign=middle;whiteSpace=wrap;rounded=0;fontSize=20;" vertex="1" parent="1">
          <mxGeometry x="345" y="270" width="250" height="20" as="geometry" />
        </mxCell>
        <mxCell id="6UCosM7E__kPXZcTLZPM-28" value="description TEXT" style="text;html=1;strokeColor=none;fillColor=none;align=center;verticalAlign=middle;whiteSpace=wrap;rounded=0;fontSize=20;" vertex="1" parent="1">
          <mxGeometry x="350" y="300" width="250" height="20" as="geometry" />
        </mxCell>
        <mxCell id="6UCosM7E__kPXZcTLZPM-29" value="created_at datetime" style="text;html=1;strokeColor=none;fillColor=none;align=center;verticalAlign=middle;whiteSpace=wrap;rounded=0;fontSize=20;" vertex="1" parent="1">
          <mxGeometry x="350" y="330" width="250" height="20" as="geometry" />
        </mxCell>
        <mxCell id="6UCosM7E__kPXZcTLZPM-30" value="Orders" style="ellipse;whiteSpace=wrap;html=1;fontSize=20;" vertex="1" parent="1">
          <mxGeometry x="240" y="540" width="120" height="80" as="geometry" />
        </mxCell>
        <mxCell id="6UCosM7E__kPXZcTLZPM-31" value="" style="whiteSpace=wrap;html=1;aspect=fixed;fontSize=20;" vertex="1" parent="1">
          <mxGeometry x="170" y="630" width="290" height="290" as="geometry" />
        </mxCell>
        <mxCell id="6UCosM7E__kPXZcTLZPM-32" value="id INT AUTOINCREMENT" style="text;html=1;strokeColor=none;fillColor=none;align=center;verticalAlign=middle;whiteSpace=wrap;rounded=0;fontSize=20;" vertex="1" parent="1">
          <mxGeometry x="190" y="640" width="250" height="20" as="geometry" />
        </mxCell>
        <mxCell id="6UCosM7E__kPXZcTLZPM-34" style="edgeStyle=orthogonalEdgeStyle;rounded=0;orthogonalLoop=1;jettySize=auto;html=1;entryX=1;entryY=0.076;entryDx=0;entryDy=0;entryPerimeter=0;fontSize=20;" edge="1" parent="1" source="6UCosM7E__kPXZcTLZPM-33" target="6UCosM7E__kPXZcTLZPM-23">
          <mxGeometry relative="1" as="geometry">
            <mxPoint x="440" y="680" as="sourcePoint" />
            <Array as="points">
              <mxPoint x="640" y="680" />
              <mxPoint x="640" y="192" />
            </Array>
          </mxGeometry>
        </mxCell>
        <mxCell id="6UCosM7E__kPXZcTLZPM-33" value="product_id SMALLINT" style="text;html=1;strokeColor=none;fillColor=none;align=center;verticalAlign=middle;whiteSpace=wrap;rounded=0;fontSize=20;" vertex="1" parent="1">
          <mxGeometry x="175" y="670" width="245" height="20" as="geometry" />
        </mxCell>
        <mxCell id="6UCosM7E__kPXZcTLZPM-39" style="edgeStyle=orthogonalEdgeStyle;rounded=0;orthogonalLoop=1;jettySize=auto;html=1;entryX=-0.003;entryY=0.066;entryDx=0;entryDy=0;entryPerimeter=0;fontSize=20;" edge="1" parent="1" source="6UCosM7E__kPXZcTLZPM-36" target="6UCosM7E__kPXZcTLZPM-4">
          <mxGeometry relative="1" as="geometry">
            <Array as="points">
              <mxPoint x="-10" y="710" />
              <mxPoint x="-10" y="189" />
            </Array>
          </mxGeometry>
        </mxCell>
        <mxCell id="6UCosM7E__kPXZcTLZPM-36" value="user_id SMALLINT" style="text;html=1;strokeColor=none;fillColor=none;align=center;verticalAlign=middle;whiteSpace=wrap;rounded=0;fontSize=20;" vertex="1" parent="1">
          <mxGeometry x="200" y="700" width="222.5" height="20" as="geometry" />
        </mxCell>
        <mxCell id="6UCosM7E__kPXZcTLZPM-38" value="created_at TIMESTAMP" style="text;html=1;strokeColor=none;fillColor=none;align=center;verticalAlign=middle;whiteSpace=wrap;rounded=0;fontSize=20;" vertex="1" parent="1">
          <mxGeometry x="187.5" y="730" width="245" height="20" as="geometry" />
        </mxCell>
        <mxCell id="6UCosM7E__kPXZcTLZPM-40" value="quantity SMALLINT" style="text;html=1;strokeColor=none;fillColor=none;align=center;verticalAlign=middle;whiteSpace=wrap;rounded=0;fontSize=20;" vertex="1" parent="1">
          <mxGeometry x="195" y="765" width="245" height="20" as="geometry" />
        </mxCell>
      </root>
    </mxGraphModel>
  </diagram>
</mxfile>
